<mxfile host="app.diagrams.net" modified="2024-03-12T02:45:00.979Z" agent="Mozilla/5.0 (Macintosh; Intel Mac OS X 10.15; rv:123.0) Gecko/20100101 Firefox/123.0" etag="_r-lDFNJx5bxIyXQEI_a" version="24.0.5" type="github">
  <diagram name="Page-1" id="yR8isHKvH8H103Le79JF">
    <mxGraphModel dx="933" dy="616" grid="1" gridSize="10" guides="1" tooltips="1" connect="1" arrows="1" fold="1" page="1" pageScale="1" pageWidth="850" pageHeight="1100" math="1" shadow="0">
      <root>
        <mxCell id="0" />
        <mxCell id="1" parent="0" />
        <mxCell id="b-6Zukd7p_j_FSm9-3ux-38" value="" style="endArrow=blockThin;html=1;rounded=0;endFill=1;strokeColor=#CCCCCC;" edge="1" parent="1">
          <mxGeometry width="50" height="50" relative="1" as="geometry">
            <mxPoint x="434" y="274" as="sourcePoint" />
            <mxPoint x="590" y="118" as="targetPoint" />
          </mxGeometry>
        </mxCell>
        <mxCell id="b-6Zukd7p_j_FSm9-3ux-39" value="" style="endArrow=blockThin;html=1;rounded=0;endFill=1;strokeColor=#CCCCCC;" edge="1" parent="1">
          <mxGeometry width="50" height="50" relative="1" as="geometry">
            <mxPoint x="433" y="245" as="sourcePoint" />
            <mxPoint x="589" y="401" as="targetPoint" />
          </mxGeometry>
        </mxCell>
        <mxCell id="b-6Zukd7p_j_FSm9-3ux-4" value="" style="endArrow=blockThin;html=1;rounded=0;endFill=1;" edge="1" parent="1">
          <mxGeometry width="50" height="50" relative="1" as="geometry">
            <mxPoint x="479" y="380" as="sourcePoint" />
            <mxPoint x="479" y="160" as="targetPoint" />
          </mxGeometry>
        </mxCell>
        <mxCell id="b-6Zukd7p_j_FSm9-3ux-5" value="" style="endArrow=blockThin;html=1;rounded=0;endFill=1;" edge="1" parent="1">
          <mxGeometry width="50" height="50" relative="1" as="geometry">
            <mxPoint x="459" y="360" as="sourcePoint" />
            <mxPoint x="719" y="360" as="targetPoint" />
          </mxGeometry>
        </mxCell>
        <mxCell id="b-6Zukd7p_j_FSm9-3ux-6" value="" style="ellipse;whiteSpace=wrap;html=1;rotation=0;fillStyle=solid;fillColor=#FFCCCC;strokeColor=none;" vertex="1" parent="1">
          <mxGeometry x="519" y="240" width="160" height="40" as="geometry" />
        </mxCell>
        <mxCell id="b-6Zukd7p_j_FSm9-3ux-7" value="" style="endArrow=none;dashed=1;html=1;rounded=0;" edge="1" parent="1">
          <mxGeometry width="50" height="50" relative="1" as="geometry">
            <mxPoint x="150" y="200" as="sourcePoint" />
            <mxPoint x="310" y="200" as="targetPoint" />
          </mxGeometry>
        </mxCell>
        <mxCell id="b-6Zukd7p_j_FSm9-3ux-8" value="" style="endArrow=none;dashed=1;html=1;rounded=0;" edge="1" parent="1">
          <mxGeometry width="50" height="50" relative="1" as="geometry">
            <mxPoint x="150" y="320" as="sourcePoint" />
            <mxPoint x="210" y="320" as="targetPoint" />
          </mxGeometry>
        </mxCell>
        <mxCell id="b-6Zukd7p_j_FSm9-3ux-9" value="" style="endArrow=none;dashed=1;html=1;rounded=0;" edge="1" parent="1">
          <mxGeometry width="50" height="50" relative="1" as="geometry">
            <mxPoint x="200" y="370" as="sourcePoint" />
            <mxPoint x="200" y="310" as="targetPoint" />
          </mxGeometry>
        </mxCell>
        <mxCell id="b-6Zukd7p_j_FSm9-3ux-10" value="" style="endArrow=none;dashed=1;html=1;rounded=0;" edge="1" parent="1">
          <mxGeometry width="50" height="50" relative="1" as="geometry">
            <mxPoint x="320" y="370" as="sourcePoint" />
            <mxPoint x="320" y="210" as="targetPoint" />
          </mxGeometry>
        </mxCell>
        <mxCell id="b-6Zukd7p_j_FSm9-3ux-11" value="" style="shape=crossbar;whiteSpace=wrap;html=1;rounded=1;" vertex="1" parent="1">
          <mxGeometry x="200" y="370" width="120" height="20" as="geometry" />
        </mxCell>
        <mxCell id="b-6Zukd7p_j_FSm9-3ux-12" value="" style="shape=crossbar;whiteSpace=wrap;html=1;rounded=1;rotation=-90;" vertex="1" parent="1">
          <mxGeometry x="80" y="250" width="120" height="20" as="geometry" />
        </mxCell>
        <mxCell id="b-6Zukd7p_j_FSm9-3ux-16" value="&lt;div&gt;\(\Delta c\)&lt;/div&gt;" style="text;html=1;align=center;verticalAlign=middle;resizable=0;points=[];autosize=1;strokeColor=none;fillColor=none;" vertex="1" parent="1">
          <mxGeometry x="80" y="245" width="80" height="30" as="geometry" />
        </mxCell>
        <mxCell id="b-6Zukd7p_j_FSm9-3ux-17" value="&lt;div&gt;\(\Delta c&#39;\)&lt;/div&gt;" style="text;html=1;align=center;verticalAlign=middle;resizable=0;points=[];autosize=1;strokeColor=none;fillColor=none;" vertex="1" parent="1">
          <mxGeometry x="220" y="380" width="80" height="30" as="geometry" />
        </mxCell>
        <mxCell id="b-6Zukd7p_j_FSm9-3ux-18" value="&lt;div&gt;\(\Delta e\)&lt;/div&gt;" style="text;html=1;align=center;verticalAlign=middle;resizable=0;points=[];autosize=1;strokeColor=none;fillColor=none;" vertex="1" parent="1">
          <mxGeometry x="389" y="245" width="80" height="30" as="geometry" />
        </mxCell>
        <mxCell id="b-6Zukd7p_j_FSm9-3ux-19" value="&lt;div&gt;\(\Delta e&#39;\)&lt;/div&gt;" style="text;html=1;align=center;verticalAlign=middle;resizable=0;points=[];autosize=1;strokeColor=none;fillColor=none;" vertex="1" parent="1">
          <mxGeometry x="559" y="380" width="80" height="30" as="geometry" />
        </mxCell>
        <mxCell id="b-6Zukd7p_j_FSm9-3ux-20" value="" style="endArrow=none;dashed=1;html=1;rounded=0;" edge="1" parent="1">
          <mxGeometry width="50" height="50" relative="1" as="geometry">
            <mxPoint x="519" y="370" as="sourcePoint" />
            <mxPoint x="519" y="270" as="targetPoint" />
          </mxGeometry>
        </mxCell>
        <mxCell id="b-6Zukd7p_j_FSm9-3ux-21" value="" style="endArrow=none;dashed=1;html=1;rounded=0;" edge="1" parent="1">
          <mxGeometry width="50" height="50" relative="1" as="geometry">
            <mxPoint x="679" y="370" as="sourcePoint" />
            <mxPoint x="679" y="270" as="targetPoint" />
          </mxGeometry>
        </mxCell>
        <mxCell id="b-6Zukd7p_j_FSm9-3ux-23" value="" style="shape=crossbar;whiteSpace=wrap;html=1;rounded=1;" vertex="1" parent="1">
          <mxGeometry x="519" y="370" width="160" height="20" as="geometry" />
        </mxCell>
        <mxCell id="b-6Zukd7p_j_FSm9-3ux-24" value="" style="shape=crossbar;whiteSpace=wrap;html=1;rounded=1;rotation=-90;" vertex="1" parent="1">
          <mxGeometry x="439" y="250" width="40" height="20" as="geometry" />
        </mxCell>
        <mxCell id="b-6Zukd7p_j_FSm9-3ux-25" value="" style="endArrow=none;dashed=1;html=1;rounded=0;" edge="1" parent="1">
          <mxGeometry width="50" height="50" relative="1" as="geometry">
            <mxPoint x="469" y="240" as="sourcePoint" />
            <mxPoint x="579" y="240" as="targetPoint" />
          </mxGeometry>
        </mxCell>
        <mxCell id="b-6Zukd7p_j_FSm9-3ux-26" value="" style="endArrow=none;dashed=1;html=1;rounded=0;" edge="1" parent="1">
          <mxGeometry width="50" height="50" relative="1" as="geometry">
            <mxPoint x="469" y="280" as="sourcePoint" />
            <mxPoint x="579" y="280" as="targetPoint" />
          </mxGeometry>
        </mxCell>
        <mxCell id="b-6Zukd7p_j_FSm9-3ux-1" value="" style="endArrow=blockThin;html=1;rounded=0;endFill=1;" edge="1" parent="1">
          <mxGeometry width="50" height="50" relative="1" as="geometry">
            <mxPoint x="160" y="380" as="sourcePoint" />
            <mxPoint x="160" y="160" as="targetPoint" />
          </mxGeometry>
        </mxCell>
        <mxCell id="b-6Zukd7p_j_FSm9-3ux-2" value="" style="endArrow=blockThin;html=1;rounded=0;endFill=1;" edge="1" parent="1">
          <mxGeometry width="50" height="50" relative="1" as="geometry">
            <mxPoint x="140" y="360" as="sourcePoint" />
            <mxPoint x="360" y="360" as="targetPoint" />
          </mxGeometry>
        </mxCell>
        <mxCell id="b-6Zukd7p_j_FSm9-3ux-3" value="" style="ellipse;whiteSpace=wrap;html=1;rotation=-45;fillStyle=solid;fillColor=#FFCCCC;strokeColor=none;" vertex="1" parent="1">
          <mxGeometry x="180" y="240" width="160" height="40" as="geometry" />
        </mxCell>
        <mxCell id="b-6Zukd7p_j_FSm9-3ux-42" value="&lt;div&gt;\(c\)&lt;/div&gt;" style="text;html=1;align=center;verticalAlign=middle;resizable=0;points=[];autosize=1;strokeColor=none;fillColor=none;" vertex="1" parent="1">
          <mxGeometry x="120" y="150" width="40" height="30" as="geometry" />
        </mxCell>
        <mxCell id="b-6Zukd7p_j_FSm9-3ux-43" value="&lt;div&gt;\(c&#39;\)&lt;/div&gt;" style="text;html=1;align=center;verticalAlign=middle;resizable=0;points=[];autosize=1;strokeColor=none;fillColor=none;" vertex="1" parent="1">
          <mxGeometry x="330" y="360" width="50" height="30" as="geometry" />
        </mxCell>
        <mxCell id="b-6Zukd7p_j_FSm9-3ux-44" value="&lt;div&gt;\(e\)&lt;/div&gt;" style="text;html=1;align=center;verticalAlign=middle;resizable=0;points=[];autosize=1;strokeColor=none;fillColor=none;" vertex="1" parent="1">
          <mxGeometry x="439" y="150" width="40" height="30" as="geometry" />
        </mxCell>
        <mxCell id="b-6Zukd7p_j_FSm9-3ux-45" value="&lt;div&gt;\(e&#39;\)&lt;/div&gt;" style="text;html=1;align=center;verticalAlign=middle;resizable=0;points=[];autosize=1;strokeColor=none;fillColor=none;" vertex="1" parent="1">
          <mxGeometry x="689" y="360" width="50" height="30" as="geometry" />
        </mxCell>
        <mxCell id="b-6Zukd7p_j_FSm9-3ux-46" value="&lt;div&gt;\(c&#39;\)&lt;/div&gt;" style="text;html=1;align=center;verticalAlign=middle;resizable=0;points=[];autosize=1;strokeColor=none;fillColor=none;fontColor=#CCCCCC;" vertex="1" parent="1">
          <mxGeometry x="539" y="380" width="50" height="30" as="geometry" />
        </mxCell>
        <mxCell id="b-6Zukd7p_j_FSm9-3ux-47" value="&lt;div&gt;\(c\)&lt;/div&gt;" style="text;html=1;align=center;verticalAlign=middle;resizable=0;points=[];autosize=1;strokeColor=none;fillColor=none;fontColor=#CCCCCC;" vertex="1" parent="1">
          <mxGeometry x="549" y="110" width="40" height="30" as="geometry" />
        </mxCell>
        <mxCell id="b-6Zukd7p_j_FSm9-3ux-49" value="" style="endArrow=block;html=1;rounded=0;strokeWidth=3;endFill=1;" edge="1" parent="1">
          <mxGeometry width="50" height="50" relative="1" as="geometry">
            <mxPoint x="360" y="259.7" as="sourcePoint" />
            <mxPoint x="400" y="260" as="targetPoint" />
          </mxGeometry>
        </mxCell>
      </root>
    </mxGraphModel>
  </diagram>
</mxfile>
